<?xml version="1.0" standalone="no"?>
<!DOCTYPE svg PUBLIC "-//W3C//DTD SVG 20010904//EN"
 "http://www.w3.org/TR/2001/REC-SVG-20010904/DTD/svg10.dtd">
<svg version="1.0" xmlns="http://www.w3.org/2000/svg"
 width="1080.000000pt" height="1080.000000pt" viewBox="0 0 1080.000000 1080.000000"
 preserveAspectRatio="xMidYMid meet">
<metadata>
Created by potrace 1.11, written by Peter Selinger 2001-2013
</metadata>
<g transform="translate(0.000000,1080.000000) scale(0.100000,-0.100000)"
fill="#000000" stroke="none">
<path d="M10432 9712 c-27 -2 -40 -7 -36 -14 7 -11 -21 -7 -59 8 -9 3 -23 -3
-33 -14 -12 -15 -23 -18 -43 -13 -14 4 -44 4 -66 -1 -22 -5 -48 -7 -59 -4 -11
3 -30 -4 -44 -14 -13 -11 -28 -17 -33 -14 -5 3 -9 -3 -9 -13 0 -14 -2 -15 -9
-5 -8 13 -21 13 -106 -3 -16 -4 -34 -10 -40 -15 -5 -4 -38 -16 -72 -25 -35
-10 -63 -21 -63 -25 0 -5 -8 -7 -17 -6 -10 2 -28 -7 -40 -19 -15 -14 -46 -26
-93 -34 -44 -8 -70 -18 -70 -26 0 -7 -12 -16 -27 -20 -16 -4 -36 -15 -46 -26
-10 -10 -30 -19 -45 -19 -16 0 -37 -7 -48 -15 -10 -8 -25 -15 -32 -15 -23 0
-102 -42 -96 -51 6 -10 4 -11 -48 -13 -20 0 -40 -4 -44 -8 -4 -5 -20 -8 -35
-8 -15 0 -29 -7 -33 -15 -3 -9 -18 -15 -35 -15 -16 0 -31 -5 -33 -11 -4 -11
-70 -39 -95 -41 -7 -1 -13 -5 -13 -8 0 -4 -15 -14 -32 -21 -18 -7 -38 -20 -45
-29 -7 -8 -13 -10 -13 -5 0 6 -7 -5 -15 -22 -13 -30 -18 -33 -58 -33 -31 0
-56 -8 -81 -25 -20 -14 -43 -25 -51 -25 -8 0 -17 -4 -20 -10 -3 -5 -15 -10
-26 -10 -10 0 -18 -5 -17 -12 2 -6 -13 -15 -32 -18 -37 -7 -107 -44 -125 -65
-5 -7 -27 -18 -47 -25 -21 -6 -38 -18 -38 -26 0 -8 -10 -14 -26 -14 -14 0 -39
-11 -56 -25 -16 -14 -35 -25 -42 -25 -7 0 -25 -11 -40 -25 -14 -13 -26 -21
-26 -18 0 3 -6 0 -13 -6 -8 -6 -16 -9 -19 -6 -3 3 -17 -13 -32 -35 -14 -22
-34 -40 -44 -40 -9 0 -35 -12 -57 -25 -22 -14 -47 -25 -55 -25 -8 0 -31 -14
-50 -30 -19 -17 -55 -39 -80 -51 -25 -12 -60 -32 -77 -46 -18 -13 -33 -21 -33
-18 0 4 -14 -5 -31 -19 -17 -14 -35 -24 -40 -21 -5 4 -19 -4 -31 -15 -13 -12
-40 -29 -60 -37 -21 -8 -38 -19 -38 -23 0 -4 -13 -13 -30 -20 -16 -7 -30 -19
-30 -26 0 -8 -6 -14 -14 -14 -7 0 -25 -9 -40 -21 -14 -11 -26 -18 -26 -14 0 4
-13 -7 -30 -23 -20 -21 -36 -28 -50 -25 -14 4 -20 0 -20 -11 0 -9 -7 -16 -15
-16 -8 0 -15 -4 -15 -9 0 -5 -13 -14 -30 -21 -16 -7 -30 -17 -30 -22 0 -5 -4
-7 -8 -4 -4 2 -30 -16 -57 -40 -45 -41 -118 -84 -145 -84 -6 0 -13 -7 -16 -15
-4 -8 -14 -15 -24 -15 -10 0 -23 -7 -30 -15 -7 -8 -21 -15 -32 -15 -10 0 -16
-4 -13 -10 3 -5 3 -10 -2 -10 -4 0 -21 -11 -37 -25 -16 -14 -35 -25 -42 -25
-7 0 -19 -8 -26 -18 -7 -11 -24 -25 -38 -32 -14 -7 -32 -21 -41 -32 -9 -10
-21 -18 -27 -18 -6 0 -28 -15 -48 -34 -21 -19 -42 -33 -46 -30 -4 3 -8 2 -8
-3 0 -4 -18 -16 -39 -27 -22 -10 -52 -32 -67 -47 -15 -16 -32 -29 -36 -29 -12
0 -66 -38 -105 -74 -18 -17 -33 -26 -33 -21 0 5 -8 0 -19 -11 -10 -10 -28 -26
-41 -34 -12 -8 -28 -21 -36 -27 -7 -7 -15 -13 -19 -13 -10 0 -30 -23 -37 -42
-4 -9 -20 -19 -37 -23 -17 -4 -31 -13 -31 -21 0 -8 -6 -14 -14 -14 -8 0 -21
-6 -28 -13 -7 -7 -21 -16 -30 -20 -10 -3 -18 -13 -18 -20 0 -8 -17 -22 -37
-33 -41 -21 -109 -83 -106 -96 2 -4 -1 -8 -6 -8 -5 0 -29 -18 -52 -40 -24 -22
-47 -40 -52 -40 -5 0 -21 -12 -37 -27 -16 -16 -56 -53 -90 -83 -125 -113 -242
-233 -298 -309 -15 -20 -35 -45 -45 -56 -10 -11 -34 -48 -54 -82 -19 -35 -39
-65 -44 -69 -5 -3 -9 -15 -9 -27 0 -20 -48 -77 -65 -77 -3 0 -15 -9 -27 -20
-40 -37 -60 -24 -100 63 -9 20 -15 37 -11 37 3 0 -9 14 -27 30 -18 17 -36 30
-41 30 -4 0 -6 7 -3 14 10 26 -28 65 -62 66 -50 0 -77 -35 -80 -104 -2 -46 1
-59 14 -64 22 -8 42 -28 42 -41 0 -6 4 -11 9 -11 5 0 12 -14 16 -30 4 -17 10
-30 15 -30 5 0 12 -10 16 -22 4 -13 11 -26 16 -29 19 -12 -11 -47 -58 -70 -26
-12 -58 -35 -71 -50 -14 -15 -44 -37 -68 -48 -23 -11 -49 -26 -57 -34 -8 -8
-37 -27 -64 -42 -75 -40 -87 -48 -109 -72 -11 -13 -26 -23 -33 -23 -7 0 -12
-3 -12 -7 0 -5 -16 -19 -35 -31 -67 -47 -116 -108 -117 -149 -1 -4 -9 -14 -19
-21 -11 -7 -19 -20 -19 -28 0 -8 -4 -14 -9 -14 -29 0 -39 -192 -11 -210 7 -4
9 -13 6 -19 -4 -6 -2 -11 4 -11 13 0 40 -25 40 -36 0 -16 45 -74 58 -74 7 0
15 -7 18 -15 4 -8 10 -15 15 -15 10 0 96 -58 104 -70 3 -5 18 -11 34 -15 15
-3 37 -14 47 -24 11 -10 25 -16 32 -13 6 2 12 -1 12 -6 0 -5 14 -15 31 -22 17
-7 36 -18 43 -24 20 -18 113 -66 129 -66 8 0 26 -9 40 -20 15 -12 29 -21 32
-20 16 1 16 -2 -6 -18 -40 -31 -128 -92 -133 -92 -8 0 -73 -46 -91 -64 -9 -9
-23 -16 -32 -16 -8 0 -30 -16 -48 -36 -18 -20 -35 -35 -37 -33 -9 7 -117 -57
-147 -87 -19 -19 -40 -34 -47 -34 -20 0 -94 -41 -94 -51 0 -5 -5 -9 -11 -9
-18 0 -139 -84 -139 -97 0 -7 -6 -10 -13 -7 -8 3 -18 -6 -25 -21 -6 -14 -18
-25 -26 -25 -20 0 -63 -24 -99 -56 -57 -50 -111 -91 -152 -113 -45 -24 -102
-63 -125 -84 -8 -8 -31 -22 -50 -32 -19 -10 -41 -26 -48 -36 -7 -11 -21 -19
-31 -19 -19 0 -84 -44 -75 -52 2 -3 -13 -13 -36 -22 -22 -9 -40 -23 -40 -31 0
-8 -3 -14 -7 -14 -25 4 -41 -4 -53 -26 -7 -14 -18 -25 -24 -25 -13 0 -89 -51
-99 -67 -4 -7 -17 -13 -27 -13 -11 0 -20 -4 -20 -9 0 -5 -13 -14 -30 -21 -16
-7 -30 -16 -30 -20 0 -4 -16 -15 -35 -26 -19 -10 -35 -22 -35 -26 0 -5 -6 -8
-13 -8 -7 0 -31 -15 -52 -34 -38 -34 -53 -43 -111 -67 -18 -7 -30 -18 -27 -25
2 -7 -5 -15 -16 -19 -12 -3 -21 -11 -21 -16 0 -5 -5 -9 -11 -9 -6 0 -24 -11
-41 -25 -16 -14 -36 -25 -43 -25 -8 0 -24 -13 -37 -30 -12 -16 -28 -30 -35
-30 -8 0 -12 -4 -8 -9 3 -5 -5 -13 -17 -17 -12 -3 -33 -17 -47 -30 -14 -13
-31 -24 -38 -24 -6 0 -18 -6 -26 -14 -8 -8 -23 -16 -33 -18 -10 -2 -24 -12
-30 -23 -6 -11 -16 -19 -22 -17 -7 1 -12 -5 -12 -13 0 -10 -10 -15 -30 -15
-19 0 -30 -5 -30 -14 0 -8 -13 -23 -30 -33 -17 -9 -30 -21 -30 -25 0 -4 -7 -8
-15 -8 -9 0 -26 -10 -39 -23 -13 -13 -28 -21 -34 -19 -7 2 -12 -3 -12 -12 0
-9 -12 -23 -27 -33 -16 -10 -30 -20 -33 -23 -3 -3 -21 -17 -40 -30 -19 -14
-46 -35 -60 -47 -14 -13 -33 -26 -42 -29 -10 -3 -18 -9 -18 -14 0 -5 -13 -16
-29 -24 -15 -8 -48 -33 -72 -55 -24 -22 -49 -41 -54 -41 -6 0 -28 -16 -48 -35
-20 -19 -42 -35 -47 -35 -6 0 -10 -4 -10 -9 0 -5 -26 -26 -57 -47 -32 -21 -74
-53 -93 -71 -19 -18 -41 -33 -47 -33 -7 0 -13 -4 -13 -9 0 -13 -90 -96 -101
-93 -5 1 -9 -2 -9 -7 0 -12 -111 -91 -127 -91 -7 0 -13 -7 -13 -15 0 -9 -12
-21 -28 -28 -15 -6 -31 -17 -35 -24 -4 -7 -15 -13 -22 -13 -8 0 -15 -4 -15
-10 0 -12 -41 -54 -55 -56 -5 -1 -31 -21 -56 -45 -26 -24 -70 -64 -98 -89 -28
-25 -71 -64 -96 -87 -25 -24 -49 -43 -53 -43 -26 0 -272 -245 -272 -270 0 -6
-6 -10 -14 -10 -8 0 -18 -9 -21 -20 -3 -11 -11 -20 -16 -20 -6 0 -15 -13 -20
-30 -6 -16 -19 -32 -30 -35 -10 -4 -19 -15 -19 -26 0 -10 -4 -19 -9 -19 -15 0
-67 -56 -63 -68 2 -7 -1 -12 -7 -12 -6 0 -11 -7 -11 -15 0 -8 -17 -31 -37 -52
-21 -20 -38 -40 -38 -43 -1 -3 -9 -19 -18 -37 -9 -18 -17 -39 -17 -47 0 -8 -4
-16 -9 -18 -9 -3 -15 -50 -12 -104 0 -20 6 -31 16 -31 8 0 15 4 15 9 0 18 51
6 77 -18 18 -16 34 -23 48 -20 11 3 33 6 48 6 19 0 26 4 21 12 -5 8 -2 9 10 5
14 -5 17 -3 12 8 -3 8 -1 15 4 15 6 0 10 -5 10 -11 0 -8 4 -8 13 -2 6 6 33 18
60 28 26 10 47 22 47 26 0 5 5 9 11 9 6 0 25 6 42 14 18 7 52 19 77 26 25 8
50 19 55 25 10 13 49 27 76 30 8 0 30 11 47 24 18 12 32 19 32 15 0 -5 5 -3
12 4 7 7 22 12 35 12 13 0 22 5 21 12 -2 6 18 18 45 25 26 8 47 17 47 21 0 4
10 8 22 9 11 1 24 6 27 10 3 5 25 15 48 22 23 8 52 24 64 37 12 13 25 21 29
19 4 -3 13 2 20 10 7 8 21 15 31 15 12 0 19 7 19 19 0 15 14 23 65 36 36 10
68 22 71 27 3 4 14 8 25 8 10 0 19 5 19 10 0 6 5 10 10 10 12 0 94 52 98 63 2
4 12 7 23 7 11 0 22 7 25 15 5 12 52 34 79 36 6 0 19 8 30 18 28 24 78 56 90
56 9 1 35 14 80 42 11 7 36 20 55 30 19 10 40 25 47 33 6 8 15 15 20 16 20 1
111 50 141 76 18 16 37 26 43 23 5 -4 9 0 9 8 0 8 12 17 28 20 15 3 40 17 55
31 16 14 35 22 43 19 8 -3 14 0 14 6 0 7 19 20 43 30 23 10 55 33 71 50 32 33
97 71 122 71 8 0 13 4 9 9 -3 5 5 13 17 17 13 3 45 17 72 30 28 13 55 24 63
24 7 0 17 8 22 19 6 10 24 24 40 31 17 7 28 17 24 23 -4 6 0 8 10 4 9 -3 23 0
31 8 8 8 22 15 30 15 9 0 16 4 16 8 0 9 44 33 67 38 16 3 73 46 73 55 0 7 56
26 85 30 6 0 30 15 55 32 25 18 57 38 73 46 15 8 30 25 33 37 5 21 43 40 72
35 6 -1 12 4 12 12 0 11 82 57 103 57 3 0 18 11 32 26 14 14 29 22 35 19 5 -3
14 3 20 14 6 12 16 18 25 15 8 -4 15 -1 15 5 0 6 5 11 11 11 6 0 17 7 25 15 9
8 26 15 39 15 13 0 43 15 68 34 24 19 54 37 66 41 11 3 21 11 21 17 0 5 6 8
14 5 8 -3 20 1 26 9 7 8 16 14 21 14 4 0 21 12 36 26 15 15 42 33 58 40 17 8
47 24 67 36 107 66 164 98 170 98 4 0 19 12 32 25 14 14 32 25 41 25 8 0 15 5
15 12 0 6 3 9 6 5 4 -3 25 9 48 27 50 40 99 70 148 91 20 9 39 22 41 29 3 8
18 17 33 20 15 4 39 16 52 27 14 10 30 19 36 19 6 0 26 14 44 30 19 16 44 32
55 36 12 4 35 17 50 30 16 13 35 24 43 24 8 0 14 5 14 10 0 6 7 10 15 10 8 0
15 3 15 8 0 4 15 13 32 21 18 8 46 25 61 38 16 12 34 23 41 23 7 0 30 13 52
30 21 16 46 30 54 30 8 0 26 9 40 20 14 11 33 20 43 20 9 0 17 5 17 10 0 6 11
15 25 20 14 5 25 14 25 20 0 5 6 10 14 10 8 0 17 9 21 19 4 12 12 18 21 14 7
-3 14 -1 14 4 0 5 16 15 35 22 20 7 47 24 62 39 24 24 113 72 134 72 5 0 17 8
27 17 43 41 73 63 87 63 16 0 90 44 113 67 7 7 16 13 20 14 30 3 48 10 57 21
12 16 68 53 74 49 2 -1 7 1 10 6 3 5 26 17 51 28 25 11 53 27 64 37 10 9 34
24 52 33 19 9 34 20 34 24 0 5 13 13 28 19 16 5 41 22 57 36 15 14 35 26 44
26 10 0 22 5 29 12 7 7 12 8 12 3 0 -6 8 1 18 15 9 14 22 25 27 26 19 1 95 39
95 47 0 14 29 39 39 32 5 -3 12 -1 16 5 3 5 15 10 25 10 10 0 23 6 27 13 11
16 70 57 83 57 6 0 8 5 5 10 -3 6 2 10 11 10 10 0 25 6 33 14 9 8 25 16 36 18
11 1 22 6 25 9 12 13 129 79 140 79 7 0 40 23 75 50 35 28 69 50 77 50 8 0 28
11 44 25 16 14 37 28 47 31 9 3 17 9 17 13 0 4 18 13 41 20 22 7 43 19 46 27
3 8 11 14 19 14 8 0 14 5 14 11 0 5 4 8 9 5 5 -3 15 1 22 10 7 9 30 23 51 31
21 8 38 19 38 24 0 5 7 9 15 9 7 0 18 6 22 14 4 8 20 16 34 18 15 2 34 10 43
17 9 7 16 10 16 6 0 -4 15 5 33 19 46 38 49 39 87 58 42 21 73 41 80 50 3 3
18 10 33 13 15 4 27 11 27 16 0 5 14 16 31 25 26 13 33 14 41 2 7 -9 8 -7 5 9
-3 13 2 27 12 35 27 21 60 38 76 38 8 0 15 4 15 10 0 5 11 12 25 16 14 3 25
10 25 15 0 5 6 9 13 9 7 0 23 9 35 20 12 11 24 20 28 20 4 0 23 12 43 27 20
16 38 28 41 29 11 2 57 25 85 44 53 35 65 41 65 35 0 -3 11 5 24 18 14 14 55
40 92 58 37 19 76 42 86 52 10 9 23 17 29 17 5 0 27 11 47 25 20 14 45 25 54
25 10 0 18 4 18 9 0 5 30 28 68 51 37 23 71 48 75 56 4 8 18 14 31 14 13 0 35
9 49 20 14 11 32 20 40 20 9 0 17 3 19 8 4 10 78 64 78 57 0 -6 10 2 49 35 9
8 40 26 67 40 27 14 58 32 69 41 11 9 43 29 70 44 76 41 119 66 125 75 3 4 26
19 52 34 26 14 61 39 78 55 18 16 50 37 71 47 22 9 39 21 39 26 0 5 4 7 9 4 5
-4 23 5 39 19 16 14 34 25 39 25 11 0 96 61 101 72 2 5 12 8 23 8 11 0 22 6
25 14 3 7 22 22 42 32 20 11 46 29 58 42 12 12 27 22 34 22 14 0 123 70 128
83 2 4 12 7 23 7 10 0 19 5 19 10 0 6 7 10 15 10 8 0 15 5 15 10 0 6 7 10 15
10 8 0 15 4 15 10 0 5 19 22 42 36 23 15 53 37 67 51 14 13 40 31 56 40 17 8
50 32 75 52 24 20 48 36 53 36 4 0 11 5 15 10 4 6 13 10 21 10 8 0 19 9 25 20
13 24 66 75 78 75 4 0 8 7 8 15 0 8 7 15 15 15 8 0 15 5 15 11 0 6 11 20 24
30 14 11 28 28 31 39 4 11 10 18 15 15 5 -3 14 11 20 31 18 54 36 85 45 76 4
-4 4 13 0 38 -4 25 -14 49 -21 53 -8 4 -14 14 -14 22 0 14 -17 19 -104 30 -34
5 -46 3 -41 -5 4 -7 -1 -9 -18 -5 -14 4 -37 0 -53 -8 -16 -8 -36 -13 -45 -12
-9 2 -36 -1 -60 -6 -24 -5 -62 -12 -84 -15 -22 -3 -47 -10 -55 -14 -8 -4 -49
-15 -90 -25 -41 -10 -80 -22 -86 -26 -6 -5 -14 -6 -18 -2 -4 4 -10 2 -14 -4
-4 -7 -29 -13 -55 -14 -27 -2 -50 -6 -53 -11 -3 -4 -14 -8 -24 -8 -10 0 -20
-4 -22 -9 -1 -5 -20 -11 -41 -14 -20 -3 -43 -10 -51 -16 -7 -6 -33 -13 -57
-15 -24 -2 -73 -17 -109 -34 -36 -17 -96 -38 -135 -46 -82 -17 -122 -30 -190
-62 -27 -13 -62 -26 -78 -30 -15 -3 -30 -10 -32 -15 -3 -4 -12 -6 -19 -3 -8 3
-35 -4 -60 -16 -25 -11 -60 -23 -76 -27 -17 -3 -30 -9 -30 -14 0 -5 -10 -9
-23 -9 -13 0 -27 -4 -33 -10 -5 -5 -18 -11 -29 -13 -11 -1 -25 -6 -31 -9 -6
-4 -22 -9 -36 -12 -15 -2 -35 -9 -45 -14 -10 -5 -24 -7 -31 -5 -7 3 -21 -2
-31 -11 -10 -9 -27 -14 -44 -11 -15 3 -27 1 -27 -5 0 -5 -4 -10 -9 -10 -5 0
-25 -7 -45 -15 -20 -8 -39 -16 -43 -16 -5 -1 -17 -8 -28 -15 -11 -8 -26 -14
-33 -14 -7 0 -20 -7 -28 -15 -9 -8 -27 -15 -41 -15 -14 0 -39 -6 -56 -14 -50
-21 -145 -52 -187 -60 -3 -1 -11 -5 -17 -9 -7 -5 -22 -10 -32 -12 -50 -9 -142
-39 -147 -46 -3 -5 -15 -9 -28 -9 -12 0 -27 -5 -32 -10 -10 -10 -41 -18 -91
-25 -13 -1 -29 -8 -38 -15 -8 -7 -15 -9 -15 -6 0 4 -8 2 -18 -3 -10 -5 -24 -6
-30 -2 -15 9 16 41 45 46 10 1 17 7 16 12 -1 5 27 26 63 47 35 21 64 42 64 47
0 5 7 9 14 9 8 0 28 12 43 26 15 14 37 30 48 35 11 5 34 18 50 29 17 11 41 25
55 31 14 7 53 25 88 41 34 16 62 32 62 36 0 4 15 15 33 25 17 10 47 31 66 48
19 16 50 37 68 46 18 8 33 19 33 24 0 5 8 9 18 9 10 0 28 14 40 30 13 17 31
30 41 30 9 0 28 11 41 25 13 14 29 25 35 25 19 0 57 38 50 49 -4 7 7 11 28 11
22 0 37 6 41 15 3 8 13 15 23 15 10 0 24 9 31 20 7 11 19 20 27 20 17 0 50 17
78 39 9 8 17 11 17 7 0 -7 101 42 110 53 9 11 78 61 85 61 3 0 27 16 52 35 25
19 54 35 65 35 11 0 16 5 13 10 -3 6 -3 10 2 10 4 0 26 16 47 35 22 18 73 48
115 65 42 18 83 36 91 41 8 5 29 16 47 24 17 8 34 19 38 25 3 5 21 17 40 26
19 9 37 24 40 35 4 11 16 19 30 19 12 0 26 7 29 16 4 9 13 14 21 10 8 -3 15
-1 15 4 0 5 11 12 25 16 14 3 25 10 25 14 0 4 11 11 25 14 14 4 58 37 98 74
50 47 86 72 117 82 51 16 56 17 69 19 5 0 16 7 23 14 7 6 35 23 62 36 26 14
51 32 54 40 3 9 17 31 30 49 19 25 32 33 51 31 35 -4 107 66 103 99 -4 26 -42
31 -66 7 -8 -8 -18 -15 -21 -15 -4 0 -20 -9 -36 -21 -16 -11 -29 -17 -29 -13
0 4 -11 -3 -25 -16 -14 -13 -25 -20 -25 -15 0 4 -8 2 -17 -6 -29 -23 -99 -59
-117 -59 -9 0 -16 -4 -16 -9 0 -10 -75 -61 -91 -61 -7 0 -27 -11 -45 -25 -18
-14 -44 -29 -58 -35 -14 -5 -26 -14 -26 -20 0 -6 -4 -9 -9 -6 -5 3 -19 -3 -32
-13 -35 -27 -122 -78 -215 -125 -72 -37 -117 -67 -164 -110 -24 -22 -74 -44
-88 -39 -7 3 -22 -6 -34 -19 -11 -12 -24 -22 -29 -20 -5 1 -17 -5 -26 -13 -83
-71 -103 -86 -103 -79 0 5 -6 2 -13 -7 -7 -9 -34 -26 -61 -39 -27 -12 -60 -32
-74 -45 -14 -13 -29 -22 -34 -19 -4 3 -11 -1 -14 -10 -3 -8 -19 -18 -35 -21
-16 -4 -29 -11 -29 -15 0 -5 -7 -7 -15 -4 -8 4 -15 1 -15 -5 0 -6 -5 -11 -11
-11 -7 0 -27 -16 -46 -35 -19 -20 -38 -33 -43 -30 -5 3 -15 -4 -23 -15 -7 -11
-17 -17 -20 -13 -4 3 -7 1 -7 -5 0 -9 -156 -92 -174 -92 -8 0 -26 -14 -64 -49
-14 -13 -30 -24 -36 -25 -6 -1 -22 -9 -36 -19 -13 -9 -32 -17 -41 -17 -9 0
-22 -7 -29 -15 -7 -8 -19 -15 -26 -15 -8 0 -14 -5 -14 -11 0 -5 -5 -7 -10 -4
-6 3 -13 0 -16 -8 -3 -9 -16 -18 -30 -21 -13 -4 -24 -10 -24 -15 0 -4 -18 -16
-40 -26 -22 -10 -40 -21 -40 -26 0 -4 -12 -12 -27 -18 -25 -10 -80 -45 -110
-71 -7 -5 -15 -10 -18 -10 -4 0 -13 -6 -20 -12 -33 -30 -45 -38 -53 -38 -5 0
-21 -9 -35 -20 -15 -12 -30 -20 -34 -20 -4 1 -22 -10 -40 -24 -18 -15 -35 -26
-38 -26 -3 0 -31 -16 -61 -35 -30 -19 -58 -35 -63 -35 -5 0 -11 -8 -13 -18 -3
-10 -11 -19 -19 -19 -8 0 -49 -21 -92 -47 -43 -25 -81 -46 -85 -46 -4 0 -14
-9 -22 -20 -8 -11 -25 -20 -37 -20 -13 0 -23 -3 -23 -7 0 -10 -60 -51 -80 -55
-8 -2 -18 -10 -22 -19 -5 -13 -63 -48 -88 -54 -26 -7 -60 -27 -60 -35 0 -6 -4
-9 -8 -6 -5 3 -24 -5 -43 -18 -19 -13 -39 -21 -46 -19 -6 2 -32 -5 -58 -17
-26 -12 -52 -19 -58 -17 -6 2 -20 -5 -31 -14 -10 -10 -23 -16 -27 -13 -5 3
-20 -3 -34 -12 -22 -14 -62 -26 -131 -40 -11 -2 -47 -12 -80 -23 -32 -10 -75
-22 -94 -26 -19 -4 -41 -12 -47 -17 -7 -6 -19 -8 -27 -5 -8 3 -16 2 -18 -4 -3
-10 -13 -12 -95 -25 -54 -9 -53 -9 -73 -17 -69 -27 -184 -59 -222 -62 -27 -2
-52 -6 -56 -9 -5 -3 -24 -8 -42 -11 -18 -3 -38 -9 -44 -13 -6 -3 -25 -7 -43
-8 -18 0 -38 -5 -45 -11 -19 -15 -103 -34 -172 -39 -130 -9 -154 -12 -162 -17
-28 -16 -324 5 -349 25 -5 4 -21 16 -35 27 -28 21 -29 20 59 89 29 23 60 42
67 42 8 0 14 4 14 9 0 5 8 12 19 16 10 3 31 17 47 30 16 14 41 31 57 38 15 6
27 15 27 19 0 5 7 8 15 8 9 0 18 7 21 15 4 8 10 13 14 10 4 -3 10 2 13 9 3 8
24 20 46 27 23 7 41 15 41 18 0 3 25 19 55 36 30 16 55 33 55 37 0 4 8 8 18 8
9 0 31 12 47 26 17 15 44 33 60 41 17 7 45 25 64 38 19 14 42 25 52 25 11 0
19 4 19 9 0 4 20 19 45 32 25 13 45 27 45 30 0 4 12 10 26 13 14 4 40 20 58
36 17 17 39 30 49 30 9 0 26 9 37 20 11 11 31 22 45 26 14 3 25 10 25 16 0 5
5 6 10 3 6 -3 10 -1 10 5 0 6 8 14 18 17 9 4 44 25 77 48 33 22 74 47 92 54
18 7 38 20 45 28 18 22 85 63 102 63 8 0 21 6 28 13 36 34 90 67 127 79 22 7
41 18 41 23 0 6 14 20 31 30 17 11 41 27 54 35 12 8 42 28 66 44 24 16 46 32
49 36 3 4 16 11 30 15 14 4 41 20 60 35 31 23 63 41 80 44 3 1 16 11 30 24 13
12 29 22 36 22 6 0 15 7 18 16 4 9 9 14 12 11 3 -3 16 4 28 14 13 11 46 32 74
47 28 15 62 37 76 49 14 12 46 31 71 43 25 11 45 24 45 29 0 8 50 36 61 33 4
-1 17 10 29 23 13 14 29 25 37 25 7 0 13 5 13 11 0 5 4 8 9 4 5 -3 12 -1 16 5
3 5 14 10 24 10 9 0 27 10 38 23 37 39 68 61 129 92 32 16 69 38 82 49 12 11
29 21 37 22 8 1 28 12 44 23 16 12 34 21 39 21 6 0 12 5 14 11 2 5 10 11 18
13 8 1 25 8 38 15 23 12 31 18 90 68 15 13 35 23 45 23 9 0 17 7 17 15 0 8 3
14 8 13 4 -1 17 3 28 10 12 6 24 9 26 6 3 -3 8 6 11 18 5 17 14 24 33 26 15 1
35 9 44 17 9 8 22 15 28 15 7 0 12 5 12 11 0 5 5 7 12 3 8 -5 9 -2 5 9 -5 13
-1 17 15 17 12 0 35 10 52 23 17 12 48 31 70 42 21 11 40 26 43 33 3 6 12 12
19 12 8 0 17 7 20 15 4 8 12 15 19 15 7 0 15 9 18 20 3 13 14 20 31 20 14 0
35 11 48 25 19 21 42 30 80 34 4 1 5 7 2 15 -6 15 39 31 56 21 6 -4 10 5 10
18 0 41 -62 53 -117 23 -15 -8 -44 -23 -63 -32 -19 -9 -47 -24 -61 -34 -14
-10 -37 -22 -52 -25 -15 -4 -31 -12 -35 -19 -11 -17 -68 -46 -76 -39 -4 4 -9
-3 -13 -15 -3 -12 -13 -22 -22 -22 -10 0 -26 -7 -37 -15 -10 -8 -27 -15 -36
-15 -10 0 -18 -4 -18 -9 0 -5 -9 -13 -20 -16 -11 -4 -34 -18 -52 -33 -17 -14
-40 -28 -51 -29 -11 -2 -39 -14 -61 -27 -23 -14 -67 -37 -98 -52 -32 -15 -58
-31 -58 -35 0 -5 -9 -9 -20 -9 -11 0 -20 -5 -20 -11 0 -5 -15 -16 -32 -24 -18
-7 -37 -17 -41 -21 -4 -4 -15 -9 -25 -10 -9 -2 -18 -8 -20 -13 -2 -6 -8 -11
-14 -11 -6 0 -25 -11 -42 -24 -17 -12 -39 -22 -48 -20 -10 1 -18 -3 -18 -10 0
-7 -16 -18 -35 -26 -19 -8 -35 -17 -35 -20 0 -3 -18 -14 -40 -24 -22 -10 -40
-21 -40 -26 0 -4 -12 -11 -27 -15 -15 -3 -40 -15 -55 -27 -16 -11 -35 -21 -44
-22 -8 -1 -27 -12 -42 -24 -45 -37 -101 -71 -127 -78 -14 -3 -37 -18 -52 -34
-16 -15 -48 -38 -73 -51 -25 -13 -52 -31 -60 -39 -8 -8 -29 -22 -45 -31 -44
-23 -79 -43 -85 -49 -3 -3 -18 -12 -35 -20 -16 -8 -32 -18 -35 -21 -3 -3 -16
-12 -30 -19 -14 -7 -50 -32 -81 -56 -31 -24 -68 -46 -83 -50 -15 -3 -30 -13
-33 -20 -3 -8 -13 -14 -22 -14 -9 0 -27 -10 -41 -22 -14 -13 -49 -34 -77 -48
-29 -14 -53 -28 -53 -32 0 -4 -19 -17 -42 -29 -24 -12 -47 -28 -51 -35 -4 -8
-17 -14 -28 -14 -11 0 -18 -4 -15 -9 4 -5 -7 -12 -23 -16 -16 -3 -32 -13 -35
-21 -3 -8 -11 -14 -19 -14 -7 0 -27 -12 -44 -27 -17 -16 -49 -37 -70 -48 -21
-11 -68 -39 -104 -62 -36 -24 -72 -43 -78 -43 -7 0 -23 -12 -36 -26 -13 -14
-27 -25 -32 -25 -17 1 -43 -11 -43 -20 0 -5 -6 -9 -14 -9 -8 0 -21 -6 -28 -12
-27 -26 -104 -74 -148 -93 -25 -11 -56 -30 -70 -42 -14 -13 -30 -23 -36 -23
-6 0 -19 -9 -28 -19 -10 -11 -24 -17 -32 -14 -8 3 -14 1 -14 -4 0 -5 -25 -22
-55 -38 -30 -17 -55 -33 -55 -37 0 -5 -9 -8 -19 -8 -11 0 -21 -4 -23 -8 -3 -7
-72 -58 -119 -87 -9 -5 -35 -23 -58 -38 -24 -16 -50 -31 -59 -35 -15 -5 -15
-4 1 18 9 14 20 30 23 36 3 7 31 39 62 72 31 33 80 86 107 116 28 31 55 56 62
56 6 0 18 8 25 19 27 38 117 131 128 131 6 0 30 19 53 43 24 23 58 50 76 60
18 9 35 25 38 35 2 9 23 31 45 47 22 17 61 45 87 64 25 19 48 38 49 43 2 4 10
8 18 8 8 0 14 7 14 15 0 8 6 15 14 15 7 0 28 15 47 33 53 51 149 126 170 132
10 4 19 13 19 21 0 8 8 14 19 14 10 0 32 13 49 30 18 16 37 31 44 32 7 2 26
16 43 31 16 15 46 35 65 45 19 9 46 27 60 39 14 13 33 23 43 23 10 0 20 7 23
15 4 8 11 15 16 15 6 0 21 11 34 25 13 14 27 25 33 25 5 0 18 10 28 23 10 12
25 23 33 25 8 2 26 14 40 26 14 13 41 30 60 40 19 9 55 32 80 51 25 19 54 39
65 44 11 5 29 17 40 28 11 10 38 27 60 38 22 11 42 23 45 26 3 3 31 22 63 43
31 21 57 41 57 45 0 12 102 74 123 76 11 1 22 7 27 14 4 7 9 11 11 10 7 -6 45
26 52 43 3 10 12 15 21 12 8 -3 17 -1 21 5 3 6 13 11 21 11 9 0 38 20 66 44
28 24 56 42 63 39 7 -2 16 0 20 6 3 6 15 11 26 11 17 0 24 11 20 33 0 4 8 8
19 8 33 2 36 3 54 22 10 9 23 17 30 17 8 0 19 7 26 15 7 8 21 15 31 15 11 0
19 5 19 10 0 6 7 10 15 10 7 0 18 6 22 14 4 7 30 23 56 35 26 12 51 28 54 36
3 8 16 15 28 15 13 0 25 3 27 8 2 4 24 17 51 30 26 13 47 26 47 30 0 7 31 22
73 36 9 3 17 13 17 22 0 9 6 14 13 11 8 -3 31 6 53 19 21 13 56 32 76 42 21
10 35 22 31 25 -3 4 6 7 20 7 15 0 27 3 27 8 0 11 68 63 88 67 32 6 92 35 92
44 0 5 15 12 33 15 18 3 49 15 70 26 20 11 37 18 37 15 0 -3 26 8 58 25 31 16
62 30 67 30 6 0 16 9 23 20 7 12 16 19 20 16 4 -2 23 4 42 15 19 10 50 25 68
34 17 8 32 19 32 23 0 4 16 8 35 9 19 1 65 15 101 32 36 17 70 31 76 31 5 0
41 15 81 34 40 18 99 44 132 56 33 13 67 28 75 35 8 7 23 11 33 10 9 -2 17 1
17 5 0 5 16 12 35 16 20 3 42 13 50 20 8 8 26 16 42 19 72 12 123 30 124 45 0
11 2 11 6 2 4 -10 8 -10 19 -1 8 6 50 15 95 20 44 4 86 12 92 17 11 8 105 25
132 23 32 -2 75 -15 75 -22 0 -5 15 -15 33 -22 25 -11 35 -23 46 -60 13 -48
25 -58 34 -33 3 8 16 16 29 18 17 2 24 11 26 31 2 15 -1 27 -6 27 -5 0 -20 21
-33 48 -26 52 -42 72 -57 72 -6 0 -12 4 -14 8 -4 13 -46 19 -96 14z m191
-2219 c16 -9 6 -29 -22 -41 -16 -7 -40 -29 -55 -50 -14 -21 -51 -60 -82 -87
-31 -28 -74 -67 -96 -88 -36 -33 -114 -82 -128 -79 -3 1 -21 -13 -40 -31 -19
-18 -48 -40 -65 -47 -16 -8 -43 -30 -59 -47 -16 -18 -32 -33 -37 -33 -5 0 -20
-10 -35 -22 -14 -13 -29 -23 -34 -23 -4 0 -41 -21 -82 -47 -41 -26 -86 -52
-101 -57 -15 -6 -27 -15 -27 -21 0 -5 -6 -10 -13 -10 -7 0 -23 -9 -35 -20 -12
-11 -25 -20 -30 -20 -4 0 -36 -20 -70 -45 -34 -25 -67 -45 -74 -45 -7 0 -24
-9 -38 -20 -14 -11 -31 -20 -37 -20 -7 0 -13 -4 -13 -10 0 -5 -8 -10 -17 -10
-21 0 -68 -28 -103 -61 -14 -13 -47 -35 -73 -49 -26 -14 -47 -28 -47 -31 0 -3
-19 -14 -42 -25 -24 -10 -50 -26 -58 -35 -8 -9 -25 -19 -36 -23 -12 -4 -29
-15 -39 -26 -10 -11 -24 -20 -32 -20 -7 0 -13 -3 -13 -7 0 -10 -49 -33 -67
-33 -8 0 -16 -6 -19 -14 -3 -8 -25 -24 -50 -35 -24 -12 -44 -26 -44 -32 0 -6
-7 -9 -15 -5 -8 3 -15 1 -15 -4 0 -11 -102 -80 -148 -101 -18 -8 -32 -17 -32
-21 0 -5 -6 -8 -14 -8 -8 0 -16 -3 -18 -7 -1 -5 -24 -19 -50 -33 -27 -13 -48
-28 -48 -32 0 -5 -6 -8 -14 -8 -8 0 -16 -5 -18 -12 -2 -6 -11 -12 -19 -13 -9
-2 -49 -23 -90 -47 -41 -25 -93 -55 -116 -68 -24 -13 -43 -27 -43 -31 0 -4 -8
-9 -17 -13 -10 -3 -31 -15 -48 -26 -16 -11 -41 -25 -55 -32 -14 -7 -38 -22
-55 -34 -16 -11 -45 -27 -62 -34 -18 -7 -33 -15 -33 -19 0 -3 -15 -12 -32 -20
-18 -8 -40 -20 -48 -27 -13 -11 -51 -32 -147 -84 -17 -10 -46 -29 -63 -44 -17
-14 -37 -26 -43 -26 -7 0 -25 -12 -40 -26 -16 -14 -31 -23 -34 -20 -3 3 -16
-6 -29 -19 -14 -15 -34 -25 -50 -25 -15 0 -24 -3 -21 -7 8 -7 -34 -39 -45 -36
-4 2 -12 -6 -18 -17 -6 -11 -16 -17 -25 -14 -9 4 -15 0 -15 -10 0 -9 -6 -16
-13 -16 -8 0 -22 -9 -32 -20 -10 -11 -24 -20 -32 -20 -7 0 -21 -8 -31 -17 -10
-10 -25 -20 -33 -22 -8 -2 -18 -4 -24 -6 -26 -6 -44 -18 -40 -26 3 -4 -10 -11
-29 -14 -19 -4 -47 -20 -62 -36 -15 -16 -36 -29 -47 -29 -10 0 -32 -9 -48 -20
-15 -12 -42 -26 -59 -31 -16 -6 -30 -16 -30 -23 0 -9 -110 -69 -130 -71 -3 0
-15 -9 -27 -20 -38 -36 -48 -42 -78 -49 -16 -4 -35 -16 -43 -27 -7 -10 -21
-19 -31 -19 -10 0 -28 -11 -41 -25 -13 -14 -28 -25 -34 -24 -25 3 -35 -2 -41
-22 -5 -15 -13 -19 -27 -16 -11 3 -17 3 -14 0 6 -6 -25 -28 -56 -39 -10 -3
-18 -10 -18 -14 0 -4 -20 -13 -45 -20 -24 -7 -50 -19 -56 -26 -6 -8 -15 -11
-20 -8 -5 3 -9 -2 -9 -10 0 -9 -8 -16 -17 -16 -19 0 -95 -46 -128 -77 -11 -11
-35 -25 -52 -32 -18 -8 -33 -19 -33 -25 0 -9 -34 -38 -50 -42 -3 0 -12 -3 -20
-7 -8 -3 -24 -7 -34 -9 -11 -2 -31 -14 -45 -27 -14 -12 -39 -30 -56 -38 -16
-9 -33 -21 -37 -27 -4 -6 -8 -7 -8 -2 0 5 -11 -1 -24 -13 -13 -12 -30 -23 -39
-25 -8 -1 -22 -10 -31 -19 -10 -9 -21 -15 -26 -12 -4 3 -22 -9 -40 -25 -18
-17 -38 -30 -46 -30 -8 0 -14 -4 -14 -10 0 -5 -6 -10 -14 -10 -7 0 -19 -7 -26
-15 -7 -8 -16 -13 -20 -10 -5 3 -16 -3 -26 -12 -9 -10 -27 -16 -39 -15 -14 2
-26 -5 -35 -22 -7 -14 -21 -28 -32 -32 -10 -3 -18 -10 -18 -15 0 -5 -11 -9
-24 -9 -13 0 -26 -7 -30 -15 -3 -8 -17 -15 -31 -15 -14 0 -25 -6 -25 -13 0 -7
-25 -24 -55 -37 -30 -13 -53 -26 -50 -28 7 -8 -20 -30 -31 -25 -6 2 -21 -7
-32 -21 -11 -14 -25 -26 -31 -26 -6 0 -11 -4 -11 -10 0 -5 -12 -13 -27 -16
-16 -4 -41 -18 -56 -31 -16 -12 -37 -23 -47 -23 -10 0 -22 -4 -25 -10 -3 -5
-13 -10 -21 -10 -8 0 -28 -15 -44 -34 -17 -19 -41 -37 -55 -40 -14 -4 -25 -11
-25 -17 0 -8 -5 -7 -15 1 -12 10 -15 10 -15 -4 0 -9 -7 -16 -15 -16 -8 0 -15
-4 -15 -10 0 -5 -6 -10 -14 -10 -8 0 -16 -4 -18 -8 -5 -12 -77 -52 -94 -52 -8
0 -13 -3 -11 -7 5 -10 -24 -38 -40 -39 -30 -2 -36 -4 -30 -11 4 -3 -10 -14
-31 -23 -20 -10 -50 -29 -65 -44 -15 -14 -36 -26 -46 -26 -10 0 -26 -12 -36
-26 -10 -15 -22 -23 -31 -20 -8 3 -30 -2 -49 -12 -34 -17 -45 -32 -24 -32 5 0
7 -4 4 -10 -3 -5 -14 -10 -24 -10 -10 0 -24 -7 -31 -15 -15 -18 -98 -65 -115
-65 -7 0 -15 -7 -19 -15 -3 -8 -14 -15 -24 -15 -11 0 -31 -11 -45 -24 -14 -13
-28 -22 -31 -19 -3 3 -16 -3 -29 -14 -13 -10 -60 -36 -103 -58 -44 -21 -81
-41 -84 -45 -3 -3 -24 -18 -48 -34 -23 -16 -42 -33 -42 -38 0 -5 -5 -8 -12 -6
-7 3 -23 -6 -36 -19 -13 -13 -37 -26 -52 -30 -16 -3 -31 -11 -34 -19 -3 -7
-12 -11 -21 -8 -9 4 -15 0 -15 -10 0 -8 -9 -20 -20 -26 -11 -6 -20 -7 -20 -3
0 4 -5 2 -12 -5 -7 -7 -19 -12 -27 -12 -19 -1 -61 -34 -61 -48 0 -11 -24 -22
-48 -22 -9 0 -30 -11 -46 -25 -15 -13 -41 -30 -57 -37 -16 -7 -29 -16 -29 -20
0 -8 -87 -48 -105 -48 -7 0 -15 -7 -19 -15 -3 -8 -10 -15 -16 -15 -6 0 -31
-14 -56 -30 -24 -17 -44 -27 -44 -23 0 4 -5 1 -10 -7 -5 -8 -13 -15 -17 -16
-21 -3 -73 -27 -73 -34 0 -5 -16 -14 -35 -20 -19 -6 -35 -15 -35 -20 0 -9
-120 -70 -138 -70 -5 0 -21 -9 -36 -21 -14 -11 -26 -17 -26 -13 0 4 -8 1 -17
-7 -10 -8 -34 -23 -53 -33 -19 -11 -42 -26 -51 -35 -9 -9 -27 -23 -39 -31 -13
-8 -35 -24 -49 -36 -14 -12 -43 -24 -63 -28 -21 -4 -38 -13 -38 -20 0 -7 -16
-18 -35 -26 -19 -8 -35 -17 -35 -21 0 -4 -14 -10 -30 -14 -17 -4 -40 -16 -50
-28 -11 -11 -20 -17 -20 -13 0 4 -12 -2 -26 -13 -15 -12 -33 -21 -40 -21 -8 0
-14 -7 -14 -15 0 -8 -12 -18 -27 -21 -16 -4 -35 -12 -43 -19 -8 -7 -26 -16
-40 -20 -14 -4 -28 -12 -31 -17 -3 -5 -12 -10 -20 -12 -16 -2 -99 -48 -142
-78 -16 -11 -34 -21 -40 -22 -20 -4 -117 -68 -117 -77 0 -5 -7 -9 -15 -9 -15
0 -86 -37 -95 -49 -6 -9 -37 -23 -65 -30 -3 0 -8 0 -11 2 -3 1 -10 -5 -15 -14
-5 -9 -21 -20 -36 -24 -16 -3 -35 -13 -44 -21 -8 -7 -25 -15 -37 -17 -12 -2
-32 -13 -44 -24 -13 -11 -37 -24 -55 -28 -17 -3 -34 -13 -37 -21 -3 -8 -12
-14 -21 -14 -8 0 -15 -4 -15 -10 0 -5 -11 -10 -25 -10 -15 0 -25 -6 -25 -15 0
-8 -6 -12 -14 -9 -8 3 -17 0 -21 -5 -3 -6 -11 -9 -16 -6 -5 4 -21 -2 -37 -13
-15 -11 -38 -23 -51 -27 -12 -4 -38 -17 -57 -30 -19 -13 -48 -27 -65 -30 -17
-4 -33 -13 -35 -19 -3 -7 -30 -19 -60 -26 -29 -7 -54 -16 -54 -19 0 -3 -15
-12 -32 -19 -18 -8 -51 -22 -74 -33 -23 -10 -46 -19 -53 -19 -6 0 -11 -4 -11
-9 0 -5 -19 -8 -42 -6 -35 2 -44 7 -46 25 -2 14 4 27 17 36 12 9 18 21 14 30
-3 10 1 17 14 20 10 3 20 15 20 27 1 12 11 29 21 37 10 9 17 21 15 27 -2 6 5
17 15 25 11 7 22 23 26 36 4 12 11 20 16 17 5 -3 12 10 16 30 3 19 11 35 16
35 6 0 5 7 -3 16 -18 22 2 33 48 27 31 -4 40 1 98 59 34 35 68 62 74 60 6 -2
11 2 11 10 0 7 17 24 37 38 36 25 59 47 102 94 13 15 29 25 35 23 12 -4 46 30
46 45 0 5 4 7 9 4 5 -3 41 26 81 64 40 39 74 70 76 70 6 0 53 43 102 93 26 26
52 47 58 47 7 0 14 7 18 15 3 8 11 15 19 15 7 0 39 25 70 55 31 30 62 55 70
55 7 0 25 12 39 28 14 15 41 38 59 52 19 14 44 35 57 47 13 13 25 23 28 23 8
0 78 54 82 63 2 4 9 7 16 7 7 0 23 11 36 25 12 13 25 24 29 23 20 -2 30 4 36
23 4 11 9 18 12 15 3 -3 14 6 25 19 11 14 26 25 34 25 8 0 14 5 14 10 0 6 6
10 14 10 7 0 22 11 32 25 10 14 25 25 32 25 7 0 30 16 51 35 52 48 114 94 127
95 5 0 26 16 45 36 18 19 48 41 64 49 17 7 44 26 60 42 17 17 44 37 61 46 16
8 48 31 70 51 21 20 45 36 52 36 8 0 26 13 42 28 36 36 75 62 95 62 8 0 15 7
15 15 0 8 12 22 28 32 15 10 29 20 32 23 6 6 35 24 74 46 16 9 41 27 55 40 14
13 31 24 38 24 7 0 13 5 13 10 0 6 7 10 16 10 9 0 25 11 36 25 11 14 26 25 34
25 8 0 17 6 20 14 3 8 16 17 28 20 12 3 43 24 68 46 26 22 49 40 52 40 7 0 95
60 120 82 10 10 23 15 27 13 4 -3 10 4 14 15 3 11 23 27 43 37 20 10 46 25 56
35 11 10 23 18 28 18 4 0 22 16 39 35 18 19 39 35 47 35 8 0 32 16 53 35 22
19 44 35 50 35 6 0 23 13 37 28 15 15 34 27 42 27 8 0 21 8 28 17 7 10 36 30
63 43 27 14 49 30 49 35 0 6 5 10 10 10 6 0 23 11 38 25 15 14 31 25 36 25 15
0 105 62 110 77 3 8 10 12 15 9 4 -3 16 3 26 14 10 11 22 20 27 20 4 0 27 13
49 30 23 16 45 27 50 24 5 -3 9 1 9 9 0 7 12 20 28 28 15 8 29 16 32 19 3 3
17 11 31 18 14 8 38 23 52 35 14 12 49 36 76 52 28 17 51 33 51 38 0 4 6 7 14
7 8 0 24 11 37 25 13 14 46 37 74 51 27 14 52 29 55 34 3 4 57 42 120 83 63
42 134 92 157 112 22 20 50 38 61 40 11 2 30 13 41 24 27 27 103 29 129 4 10
-10 25 -24 34 -31 16 -13 112 -41 158 -47 158 -19 145 -20 163 9 10 14 14 26
10 26 -4 0 3 7 15 16 14 10 22 25 21 42 -1 15 2 47 6 71 5 27 4 42 -1 38 -6
-3 -11 6 -12 21 -1 15 -6 36 -11 47 -5 11 -14 40 -20 65 -8 36 -7 49 5 68 9
14 22 21 30 18 8 -3 14 -1 14 4 0 6 7 10 16 10 8 0 13 4 9 9 -3 6 10 17 29 26
19 9 37 23 40 31 3 7 12 11 20 8 9 -3 26 5 41 21 15 14 46 38 68 53 23 15 49
35 58 44 9 10 19 15 23 11 3 -3 6 -1 6 6 0 6 10 16 23 21 26 12 45 23 110 68
26 17 51 32 56 32 5 0 11 3 13 8 5 10 66 52 77 52 5 0 11 3 13 8 6 15 61 52
69 46 5 -3 9 0 9 6 0 6 8 14 18 17 17 7 105 63 129 83 7 5 17 10 23 10 5 0 10
4 10 9 0 5 14 14 30 21 17 7 30 16 30 20 0 4 11 11 25 14 14 4 25 11 25 16 0
6 7 10 15 10 8 0 15 5 15 11 0 5 15 16 33 24 17 7 36 17 40 22 5 4 12 8 15 8
12 1 66 39 88 63 12 12 27 22 33 22 13 0 84 50 89 63 2 4 9 7 16 7 7 0 21 9
31 20 10 11 27 23 39 26 11 4 39 18 61 33 22 14 43 25 47 26 3 0 18 10 32 23
15 12 31 22 36 22 6 0 10 4 10 8 0 8 45 34 61 36 3 1 18 15 33 33 15 18 57 46
94 64 37 17 70 36 73 41 3 5 12 10 20 12 8 1 37 9 64 19 28 9 78 21 112 27 34
6 86 24 117 40 31 17 64 30 74 30 10 0 22 3 26 7 3 4 12 8 19 9 34 6 113 29
117 35 3 4 21 10 40 14 19 4 44 13 55 20 11 7 38 16 60 20 22 4 45 11 52 17 7
5 16 7 22 4 5 -4 15 0 23 7 7 8 19 12 26 9 7 -2 24 3 37 12 13 9 33 16 43 16
10 0 35 9 57 20 22 11 48 20 59 20 32 0 149 43 170 62 11 10 27 18 35 19 58 4
122 18 137 30 6 5 36 16 65 25 30 9 60 21 66 26 7 6 25 11 40 13 16 1 39 7 53
12 14 6 54 20 90 33 36 12 79 29 97 36 17 8 41 14 52 14 12 0 29 4 39 9 9 5
35 14 57 21 22 7 44 18 48 24 6 8 10 7 14 -2 4 -11 8 -11 22 1 9 7 36 19 61
27 80 23 164 51 197 66 17 8 64 21 105 30 40 9 88 23 106 31 19 8 36 12 39 9
3 -3 19 4 34 15 16 11 41 21 56 22 16 1 33 7 38 14 6 6 27 14 48 16 20 3 43 9
50 14 6 6 25 9 40 8 15 -1 30 2 33 6 3 5 27 11 54 15 28 4 50 10 50 14 0 8 54
19 125 26 22 3 51 9 65 14 14 5 36 11 50 14 14 2 43 11 65 19 36 13 105 13
128 0z m-3923 -1232 c0 -13 -36 -42 -43 -35 -4 4 -9 -1 -13 -10 -3 -9 -10 -13
-15 -10 -5 3 -12 -2 -15 -10 -3 -9 -24 -21 -45 -27 -21 -7 -39 -16 -39 -20 0
-7 -70 -54 -81 -54 -3 0 -28 -14 -55 -31 -27 -16 -53 -32 -59 -34 -5 -3 -20
-14 -33 -25 -13 -11 -27 -20 -31 -20 -4 0 -15 -8 -25 -17 -10 -10 -21 -18 -26
-18 -4 0 -22 -13 -40 -30 -18 -16 -36 -30 -41 -30 -5 0 -27 -12 -48 -27 -21
-16 -47 -34 -57 -40 -11 -7 -36 -24 -56 -38 -21 -13 -38 -22 -38 -19 0 3 -16
-8 -35 -25 -20 -17 -40 -31 -44 -31 -13 0 -145 -81 -149 -91 -2 -5 -12 -9 -22
-9 -10 0 -20 -4 -22 -9 -6 -18 -91 -82 -103 -77 -6 2 -20 -7 -30 -20 -10 -13
-24 -24 -31 -24 -7 0 -40 -23 -74 -51 -62 -51 -115 -69 -115 -39 0 8 -4 21 -8
27 -5 7 -10 21 -12 30 -7 36 -25 73 -35 73 -5 0 -10 13 -10 28 0 16 -3 32 -7
36 -4 4 -8 13 -8 19 -1 12 -51 117 -70 147 -5 8 -10 28 -11 43 -1 15 -9 36
-17 45 -9 9 -19 31 -23 47 -3 17 -15 39 -25 51 -10 11 -20 33 -22 50 -2 16
-13 48 -25 71 -21 40 -30 93 -16 93 13 0 84 -44 84 -52 0 -4 6 -8 14 -8 8 0
16 -4 18 -9 2 -5 19 -11 38 -14 19 -3 60 -15 90 -26 47 -17 77 -20 205 -19 83
1 159 5 171 9 11 4 45 10 75 14 30 4 56 8 59 10 3 1 36 6 75 10 38 4 73 9 76
11 7 4 128 31 179 40 55 9 86 17 95 25 6 4 22 10 35 13 88 16 182 41 250 64 8
3 19 4 23 3 4 0 20 5 35 12 15 7 34 13 42 12 8 0 27 4 42 10 33 13 68 16 68 6z
m-1814 -209 c6 -4 10 -21 8 -38 -2 -23 3 -32 19 -40 12 -5 29 -24 38 -41 25
-49 41 -65 61 -60 11 3 18 0 18 -8 0 -7 6 -16 13 -18 9 -4 8 -8 -3 -17 -11 -8
-12 -13 -3 -16 7 -3 10 -11 7 -19 -7 -17 23 -107 39 -120 7 -5 13 -19 13 -30
2 -52 5 -66 13 -61 4 3 6 -6 3 -19 -2 -15 4 -34 17 -51 12 -15 21 -39 21 -55
0 -15 7 -34 15 -43 8 -8 15 -21 15 -30 0 -8 5 -18 10 -21 6 -4 8 -11 5 -16 -4
-5 -1 -9 4 -9 6 0 11 -12 11 -27 -1 -29 -26 -54 -67 -67 -13 -4 -23 -12 -23
-17 0 -5 -6 -9 -14 -9 -8 0 -21 -6 -28 -12 -7 -7 -29 -22 -48 -32 -19 -10 -44
-27 -56 -38 -11 -10 -23 -15 -27 -11 -4 3 -15 -1 -24 -9 -14 -12 -75 -38 -89
-38 -1 0 -9 6 -16 13 -12 12 -115 72 -180 106 -16 8 -28 18 -28 23 0 4 -6 8
-12 8 -7 0 -24 6 -38 13 -197 105 -192 101 -278 209 -7 9 -15 43 -18 76 -5 55
-3 61 20 80 14 11 26 24 26 29 0 5 9 16 21 26 14 13 18 24 13 40 -11 39 -10
42 29 43 25 1 45 9 58 23 11 12 32 21 48 21 27 0 57 21 45 32 -3 3 10 16 28
29 18 13 35 27 36 31 2 4 10 8 18 8 9 0 26 12 39 28 12 15 45 38 71 51 27 14
69 39 93 58 45 34 58 38 77 25z m398 -910 c3 -5 6 -36 7 -70 1 -34 5 -59 9
-57 4 3 11 -5 15 -18 20 -63 7 -77 -53 -59 -20 6 -64 19 -97 28 -33 10 -62 21
-65 24 -3 4 -11 9 -19 12 -10 3 2 17 35 41 27 20 60 46 72 57 13 11 30 20 37
20 7 0 18 7 25 15 14 17 26 19 34 7z m-5054 -3742 c0 -5 -2 -10 -4 -10 -3 0
-8 5 -11 10 -3 6 -1 10 4 10 6 0 11 -4 11 -10z"/>
</g>
</svg>
