<svg class="icon" viewBox="0 0 32 32">
  <path id="stackoverflow-stack" d="M10.469,23.727L21.111,23.727L21.111,21.604L10.469,21.604L10.469,23.727ZM10.69,18.875L21.111,21.053L21.552,18.957L11.131,16.779L10.69,18.875ZM12.068,13.912L21.717,18.406L22.6,16.476L12.95,11.955L12.068,13.912ZM14.742,9.17L22.93,15.98L24.281,14.353L16.093,7.544L14.742,9.17ZM20.036,4.125L18.326,5.393L24.667,13.94L26.377,12.671L20.036,4.125Z" />
  <path id="stackoverflow-tray" d="M23.261,25.877L23.261,19.481L25.384,19.481L25.384,28L6.223,28L6.223,19.481L8.346,19.481L8.346,25.877L23.261,25.877Z" />
</svg>
